<?xml version="1.0" standalone="no"?>
<!DOCTYPE svg PUBLIC "-//W3C//DTD SVG 20010904//EN"
 "http://www.w3.org/TR/2001/REC-SVG-20010904/DTD/svg10.dtd">
<svg version="1.0" xmlns="http://www.w3.org/2000/svg"
 width="900.000000pt" height="900.000000pt" viewBox="0 0 900.000000 900.000000"
 preserveAspectRatio="xMidYMid meet">

<g transform="translate(0.000000,900.000000) scale(0.100000,-0.100000)"
fill="#000000" stroke="none">
<path d="M4515 8006 c-16 -7 -190 -101 -385 -208 -195 -107 -641 -351 -990
-543 -349 -191 -797 -437 -995 -545 -1066 -585 -1298 -710 -1375 -748 -153
-74 -249 -172 -331 -338 -105 -213 -118 -471 -36 -696 37 -101 83 -173 168
-261 l77 -78 -55 -52 c-96 -91 -164 -205 -210 -354 -24 -80 -27 -103 -27 -248
-1 -138 2 -171 22 -239 38 -131 95 -229 189 -326 l83 -84 -50 -44 c-90 -79
-185 -242 -224 -387 -24 -85 -32 -276 -16 -372 51 -320 271 -557 574 -619 76
-16 205 -44 956 -209 267 -59 636 -140 820 -180 184 -41 767 -169 1295 -285
932 -206 961 -211 1000 -198 22 8 506 277 1075 597 569 321 1372 773 1784
1005 786 442 786 442 786 509 0 74 -52 129 -124 129 -35 0 -86 -25 -351 -174
-170 -96 -940 -529 -1710 -963 -770 -433 -1426 -803 -1458 -821 l-58 -34 -727
160 c-400 88 -1127 247 -1617 355 -489 108 -1065 234 -1280 281 -452 98 -496
114 -588 214 -100 107 -143 240 -134 410 6 111 39 223 91 303 68 106 187 187
278 188 37 1 518 -103 2278 -491 223 -49 529 -116 680 -149 151 -33 439 -97
640 -141 200 -44 381 -80 401 -80 29 0 225 107 1015 551 538 303 1344 756
1789 1006 446 251 823 468 838 483 56 54 43 147 -26 191 -52 33 -95 21 -252
-68 -126 -72 -2896 -1632 -3240 -1825 -77 -43 -147 -78 -156 -78 -9 0 -345 72
-745 160 -803 177 -1661 365 -2639 580 -705 154 -710 156 -805 250 -67 67
-104 133 -130 236 -75 293 78 622 313 674 58 13 -84 42 1402 -285 313 -69 585
-125 603 -125 73 0 122 52 122 129 0 48 -35 95 -83 110 -29 9 -1729 385 -1956
432 -120 25 -207 68 -275 136 -160 162 -193 452 -76 684 57 113 193 224 270
221 14 -1 192 -37 395 -81 2157 -465 3607 -773 3636 -773 29 1 188 86 790 425
415 233 1220 686 1789 1006 569 321 1048 595 1063 610 53 52 44 146 -17 186
-13 9 -413 101 -888 206 -474 104 -984 216 -1133 249 -1647 362 -2005 440
-2017 440 -7 -1 -26 -7 -43 -14z m741 -1022 c214 -47 507 -111 651 -142 145
-31 263 -59 263 -62 -1 -6 -782 -445 -789 -444 -3 1 -302 66 -663 145 -361 79
-654 147 -650 151 18 18 769 438 783 438 9 0 191 -39 405 -86z"/>
<path d="M7475 5272 c-556 -313 -1352 -761 -1769 -996 l-759 -427 -413 91
c-226 49 -426 90 -443 90 -69 0 -121 -53 -121 -122 0 -39 30 -92 60 -108 20
-11 757 -177 896 -202 l61 -11 84 45 c46 25 746 417 1554 873 809 455 1586
893 1729 973 270 152 296 172 296 235 0 42 -26 90 -59 110 -69 41 -31 59
-1116 -551z"/>
</g>
</svg>
